# xmcd CD database file
#
# Track frame offsets:
#	150
#	19272
#	51935
#	75695
#	95500
#	112980
#	132300
#	149485
#	170827
#	191140
#	221615
#	251220
#	271062
#	283877
#	304147
#	323655
#
# Disc length: 4659 seconds
#
# Revision: 0
# Processed by: cddbd v1.5.2PL0 Copyright (c) Steve Scherf et al.
# Submitted via: CDex 1.50Beta7
#
DISCID=f7123110
DTITLE=Varios - Men of the world 2
DYEAR=2004
DGENRE=New Age
TTITLE0=Sadeness -Enigma-
TTITLE1=Fable -Robert Miles-
TTITLE2=Montezuma -Cusco-
TTITLE3=The voyager -Mike Oldfield-
TTITLE4=Snakecharmer -Ottmar Liebert and Luna negra-
TTITLE5=Rain forest -David Lanz and Paul Speer-
TTITLE6=Cuculcan -Emil Montgomery-
TTITLE7=Scope -Kitaro-
TTITLE8=Fields of gold -Gregorian-
TTITLE9=Equinoxe part 4 -Jean Michel Jarre-
TTITLE10=To the unknown man -Vangelis-
TTITLE11=El garrotin -Hevia-
TTITLE12=Theme fron the mission -Ennio Morricone-
TTITLE13=Main title from The last of the mohicans-
TTITLE14=The artifical dream -Roberto Perera-
TTITLE15=Nightingale -Yanni-
EXTD=YEAR: 2004
EXTT0=
EXTT1=
EXTT2=
EXTT3=
EXTT4=
EXTT5=
EXTT6=
EXTT7=
EXTT8=
EXTT9=
EXTT10=
EXTT11=
EXTT12=
EXTT13=
EXTT14=
EXTT15=
PLAYORDER=
